<?xml version="1.0" encoding="UTF-8" standalone="no"?>
<!-- Created with Inkscape (http://www.inkscape.org/) -->

<svg
   version="1.1"
   id="svg2"
   width="5177.3335"
   height="5176"
   viewBox="0 0 5177.3335 5176"
   sodipodi:docname="vecteezy_calendar-line-icon-set-vector-calendar-schedule-symbols_6225832-0.eps"
   xmlns:inkscape="http://www.inkscape.org/namespaces/inkscape"
   xmlns:sodipodi="http://sodipodi.sourceforge.net/DTD/sodipodi-0.dtd"
   xmlns="http://www.w3.org/2000/svg"
   xmlns:svg="http://www.w3.org/2000/svg"
   xmlns:href="data:image/png;base64">
  <defs
     id="defs6" />
  <sodipodi:namedview
     id="namedview4"
     pagecolor="#ffffff"
     bordercolor="#000000"
     borderopacity="0.25"
     inkscape:showpageshadow="2"
     inkscape:pageopacity="0.0"
     inkscape:pagecheckerboard="0"
     inkscape:deskcolor="#d1d1d1" />
  <g
     id="g8"
     inkscape:groupmode="layer"
     inkscape:label="ink_ext_XXXXXX"
     transform="matrix(1.3333333,0,0,-1.3333333,0,5176)">
    <g
       id="g10"
       transform="scale(0.1)">
      
      <path
         d="m 27163,31955.3 c -165.9,0 -300.3,-134.5 -300.3,-300.3 v -1286.1 c 0,-165.8 134.4,-300.3 300.3,-300.3 165.8,0 300.3,134.5 300.3,300.3 V 31655 c 0,165.8 -134.5,300.3 -300.3,300.3 z m 2714.5,-1.1 v -0.1 c -165.6,0.1 -299.8,-134.2 -299.8,-299.8 v -1286.1 c 0,-165.6 134.2,-299.8 299.8,-299.8 165.7,0 299.9,134.2 299.9,299.8 v 1286.1 c 0,165.6 -134.2,299.9 -299.9,299.9 z m -5543.7,0.2 v 0 c -165.9,0 -300.3,-134.4 -300.3,-300.3 v -1286 c 0,-165.9 134.4,-300.3 300.3,-300.3 v -0.1 c 165.8,0.1 300.3,134.5 300.3,300.4 v 1286 c 0,165.9 -134.5,300.3 -300.3,300.3 z m 8028.8,1.5 v -0.1 c -166.4,0.1 -301.3,-134.9 -301.3,-301.3 v -1286 c 0,-166.4 134.9,-301.3 301.3,-301.3 166.4,0 301.3,134.9 301.3,301.3 v 1286 c 0,166.4 -134.9,301.4 -301.3,301.4 z m -6010.1,-3427.1 c -77.7,0 -152.1,-30.8 -207,-85.7 -54.9,-54.9 -85.7,-129.4 -85.7,-207 v -877.7 c 0,-77.7 30.8,-152.1 85.7,-207 54.9,-54.9 129.3,-85.7 207,-85.7 h 1256 c 161.7,0 292.7,131 292.7,292.7 v 877.7 c 0,161.6 -131,292.7 -292.7,292.7 z m 2660.6,0 c -77.6,0 -152,-30.8 -207,-85.7 -54.8,-54.9 -85.7,-129.4 -85.7,-207 v -877.7 c 0,-77.7 30.9,-152.1 85.7,-207 55,-54.9 129.4,-85.7 207,-85.7 h 1256 c 161.7,0 292.8,131 292.8,292.7 v 877.7 c 0,161.6 -131.1,292.7 -292.8,292.7 z m 2661.3,0 c -77.6,0 -152,-30.8 -206.9,-85.7 -54.9,-54.9 -85.8,-129.4 -85.8,-207 v -877.7 c 0,-77.7 30.9,-152.1 85.8,-207 54.8,-54.9 129.3,-85.7 206.9,-85.7 h 1256.1 c 161.6,0 292.7,131 292.7,292.7 v 877.7 c 0,161.6 -131.1,292.7 -292.7,292.7 z M 23700.8,26350 v 0 c -77.7,0 -152.1,-30.9 -207,-85.7 -54.9,-55 -85.7,-129.4 -85.7,-207 v -877.7 c 0,-77.7 30.8,-152.1 85.7,-207 54.9,-54.9 129.3,-85.8 207,-85.8 h 1256 c 161.6,0 292.7,131.1 292.7,292.8 v 877.7 c 0,161.6 -131.1,292.7 -292.7,292.7 z m 2651.7,0 v 0 c -77.7,0 -152.1,-30.9 -207,-85.7 -54.9,-55 -85.7,-129.4 -85.7,-207 v -877.7 c 0,-77.7 30.8,-152.1 85.7,-207 54.9,-54.9 129.3,-85.8 207,-85.8 h 1256 c 161.7,0 292.7,131.1 292.7,292.8 v 877.7 c 0,161.6 -131,292.7 -292.7,292.7 z m 5321.9,0 v 0 c -77.6,0 -152.1,-30.9 -206.9,-85.7 -54.9,-55 -85.8,-129.4 -85.8,-207 v -877.7 c 0,-77.7 30.9,-152.1 85.8,-207 54.8,-54.9 129.3,-85.8 206.9,-85.8 h 1256.1 c 161.6,0 292.7,131.1 292.7,292.8 v 877.7 c 0,161.6 -131.1,292.7 -292.7,292.7 z m -1294.4,2.7 c -21,0 -42.3,-4.1 -62.8,-12.8 -18.6,-7.8 -35,-18.7 -48.8,-31.8 h -0.1 l -594.2,-519.9 -599.3,524.3 c -28.5,25 -65.8,40.1 -106.6,40.1 -89.4,0 -161.9,-72.5 -161.9,-161.9 0,-46.7 20.1,-91.1 55.3,-121.9 l 566.6,-495.8 -566.6,-495.8 c -67.3,-58.9 -74.2,-161.2 -15.3,-228.5 32.1,-36.6 76.9,-55.3 121.9,-55.3 37.9,0 75.9,13.2 106.6,40 l 599.3,524.4 599.3,-524.4 c 30.7,-26.8 68.7,-40 106.6,-40 45.1,0 89.9,18.7 121.9,55.3 58.9,67.3 52.1,169.6 -15.2,228.5 l -566.7,495.8 566.7,495.8 c 52.5,46 69.7,120.4 42.6,184.7 -26.1,61.9 -86.1,99.2 -149.3,99.2 z m -4027.5,-2215.2 c -77.7,0 -152.1,-30.8 -207,-85.7 -54.9,-54.9 -85.7,-129.3 -85.7,-207 v -877.7 c 0,-77.6 30.8,-152.1 85.7,-206.9 54.9,-55 129.3,-85.8 207,-85.8 h 1256 c 161.7,0 292.7,131.1 292.7,292.7 v 877.7 c 0,161.7 -131,292.7 -292.7,292.7 z m 2660.6,0 c -77.6,0 -152,-30.8 -207,-85.7 -54.8,-54.9 -85.7,-129.3 -85.7,-207 v -877.7 c 0,-77.6 30.9,-152.1 85.7,-206.9 55,-55 129.4,-85.8 207,-85.8 h 1256 c 161.7,0 292.8,131.1 292.8,292.7 v 877.7 c 0,161.7 -131.1,292.7 -292.8,292.7 z m 2661.3,0 c -77.6,0 -152.1,-30.8 -206.9,-85.7 -54.9,-54.9 -85.8,-129.3 -85.8,-207 v -877.7 c 0,-77.6 30.9,-152.1 85.8,-206.9 54.8,-55 129.3,-85.8 206.9,-85.8 h 1256.1 c 161.6,0 292.7,131.1 292.7,292.7 v 877.7 c 0,161.7 -131.1,292.7 -292.7,292.7 z m -7973.6,0 c -77.7,0 -152.1,-30.8 -207,-85.7 -54.9,-54.9 -85.7,-129.3 -85.7,-207 v -877.7 c 0,-77.6 30.8,-152.1 85.7,-206.9 54.9,-55 129.3,-85.8 207,-85.8 h 1256 c 161.6,0 292.7,131.1 292.7,292.7 v 877.7 c 0,161.7 -131.1,292.7 -292.7,292.7 z m 10415.8,4763.3 0.7,-5378.2 h -0.2 c -25.2,-526 -58.7,-882.4 -219,-1043 -157.4,-157.7 -494.9,-179.9 -1008.8,-188.2 l -9174.3,9.2 h -0.1 c -531.5,3.2 -879.5,22.6 -1035.3,179 -157.3,157.9 -181.3,515.2 -191.6,1052.1 l 10.5,5369.1 z m -10376,2293.5 c -3.2,0 -6.4,-0.1 -9.6,-0.2 -438.2,-16.8 -1048.4,-24.5 -1382.9,-356.6 -336.4,-334 -337.6,-938.3 -350,-1367.9 0,-2.2 -0.1,-4.4 -0.1,-6.7 l -11.7,-5930.2 c 0,-1.8 0,-3.5 0.1,-5.3 8.4,-442.7 3.4,-1066.1 337.9,-1401.8 336.4,-337.7 954.1,-324 1388.1,-326.6 0.5,0 0.8,0 1.3,0 l 9177.3,-9.3 c 0.1,0 0.3,0 0.4,0 1.3,0 2.6,0 3.9,0.1 423.1,6.8 1023.1,0 1357.8,335.4 330.4,331 344.4,940.7 365.5,1380.4 l 0.1,2.8 v -0.1 c 0.2,4 0.3,8 0.3,12.1 l -0.8,5931.4 c 3.6,437.9 26.2,1063.3 -313.6,1401.9 -337.8,336.6 -972.1,326 -1421.5,330.7 -0.9,0.1 -1.8,0.1 -2.7,0.1 l -0.2,-0.1 h -117.5 v -815.9 c 0,-221 -179.1,-400.1 -400.1,-400.1 -220.9,0 -400,179.1 -400,400.1 v 815.1 l -1685.3,-1.7 v -813.7 c 0,-220.7 -179,-399.7 -399.8,-399.7 -220.7,0 -399.7,179 -399.7,399.7 v 812.9 l -1635.4,-1.7 -278.4,1.1 v -811.6 c 0,-221.4 -179.6,-401 -401,-401 -221.5,0 -401.1,179.6 -401.1,401 v 814.5 l -2027.3,7.3 v -822.6 c 0,-221.4 -179.4,-400.9 -400.8,-400.9 -221.4,0 -400.8,179.5 -400.8,400.9 v 825.5 l -191.5,0.7 c -0.3,0 -0.6,0 -0.9,0 z"
         style="fill:#22323f;fill-opacity:1;fill-rule:nonzero;stroke:none"
         id="path14" />
      
    </g>
  </g>
</svg>
